HIERARCHY
ROOT hip
{
  OFFSET 0 0 0
  CHANNELS 6 Xposition Yposition Zposition Zrotation Yrotation Xrotation
  JOINT abdomen
  {
    OFFSET 0 20.6881 -0.73152
    CHANNELS 3 Zrotation Xrotation Yrotation
    JOINT chest
    {
      OFFSET 0 11.7043 -0.48768
      CHANNELS 3 Zrotation Xrotation Yrotation
      JOINT neck
      {
        OFFSET 0 22.1894 -2.19456
        CHANNELS 3 Zrotation Xrotation Yrotation
        JOINT head
        {
          OFFSET -0.24384 7.07133 1.2192
          CHANNELS 3 Zrotation Xrotation Yrotation
          JOINT leftEye
          {
            OFFSET 4.14528 8.04674 8.04672
            CHANNELS 3 Zrotation Xrotation Yrotation
            End Site
            {
              OFFSET 1 0 0
            }
          }
          JOINT rightEye
          {
            OFFSET -3.6576 8.04674 8.04672
            CHANNELS 3 Zrotation Xrotation Yrotation
            End Site
            {
              OFFSET 1 0 0
            }
          }
        }
      }
      JOINT rCollar
      {
        OFFSET -2.68224 19.2634 -4.8768
        CHANNELS 3 Zrotation Xrotation Yrotation
        JOINT rShldr
        {
          OFFSET -8.77824 -1.95073 1.46304
          CHANNELS 3 Zrotation Xrotation Yrotation
          JOINT rForeArm
          {
            OFFSET -28.1742 -1.7115 0.48768
            CHANNELS 3 Zrotation Xrotation Yrotation
            JOINT rHand
            {
              OFFSET -22.5879 0.773209 7.07136
              CHANNELS 3 Zrotation Xrotation Yrotation
              JOINT rThumb1
              {
                OFFSET -1.2192 -0.487915 3.41376
                CHANNELS 3 Zrotation Xrotation Yrotation
                JOINT rThumb2
                {
                  OFFSET -3.37035 -0.52449 3.41376
                  CHANNELS 3 Zrotation Xrotation Yrotation
                  End Site
                  {
                    OFFSET -1.78271 -1.18214 1.43049
                  }
                }
              }
              JOINT rIndex1
              {
                OFFSET -7.75947 0.938293 5.60832
                CHANNELS 3 Zrotation Xrotation Yrotation
                JOINT rIndex2
                {
                  OFFSET -2.54057 -0.884171 1.56538
                  CHANNELS 3 Zrotation Xrotation Yrotation
                  End Site
                  {
                    OFFSET -1.62519 -0.234802 1.16502
                  }
                }
              }
              JOINT rMid1
              {
                OFFSET -8.24714 1.18213 3.41376
                CHANNELS 3 Zrotation Xrotation Yrotation
                JOINT rMid2
                {
                  OFFSET -3.10165 -0.590103 1.0647
                  CHANNELS 3 Zrotation Xrotation Yrotation
                  End Site
                  {
                    OFFSET -2.48547 -0.328903 0.83742
                  }
                }
              }
              JOINT rRing1
              {
                OFFSET -8.82822 0.546677 1.51678
                CHANNELS 3 Zrotation Xrotation Yrotation
                JOINT rRing2
                {
                  OFFSET -2.60934 -0.819778 -0.0198488
                  CHANNELS 3 Zrotation Xrotation Yrotation
                  End Site
                  {
                    OFFSET -2.33842 -0.294052 0.168128
                  }
                }
              }
              JOINT rPinky1
              {
                OFFSET -8.27202 -0.0477905 -0.4584
                CHANNELS 3 Zrotation Xrotation Yrotation
                JOINT rPinky2
                {
                  OFFSET -1.82734 -0.647385 -0.700984
                  CHANNELS 3 Zrotation Xrotation Yrotation
                  End Site
                  {
                    OFFSET -1.69225 -0.51767 -0.607171
                  }
                }
              }
            }
          }
        }
      }
      JOINT lCollar
      {
        OFFSET 2.68224 19.2634 -4.8768
        CHANNELS 3 Zrotation Xrotation Yrotation
        JOINT lShldr
        {
          OFFSET 8.77824 -1.95073 1.46304
          CHANNELS 3 Zrotation Xrotation Yrotation
          JOINT lForeArm
          {
            OFFSET 28.1742 -1.7115 0.48768
            CHANNELS 3 Zrotation Xrotation Yrotation
            JOINT lHand
            {
              OFFSET 22.5879 0.773209 7.07136
              CHANNELS 3 Zrotation Xrotation Yrotation
              JOINT lThumb1
              {
                OFFSET 1.2192 -0.487915 3.41376
                CHANNELS 3 Zrotation Xrotation Yrotation
                JOINT lThumb2
                {
                  OFFSET 3.37035 -0.52449 3.41376
                  CHANNELS 3 Zrotation Xrotation Yrotation
                  End Site
                  {
                    OFFSET 1.78271 -1.18214 1.43049
                  }
                }
              }
              JOINT lIndex1
              {
                OFFSET 7.75947 0.938293 5.60832
                CHANNELS 3 Zrotation Xrotation Yrotation
                JOINT lIndex2
                {
                  OFFSET 2.54057 -0.884171 1.56538
                  CHANNELS 3 Zrotation Xrotation Yrotation
                  End Site
                  {
                    OFFSET 1.62519 -0.234802 1.16502
                  }
                }
              }
              JOINT lMid1
              {
                OFFSET 8.24714 1.18213 3.41376
                CHANNELS 3 Zrotation Xrotation Yrotation
                JOINT lMid2
                {
                  OFFSET 3.10165 -0.590103 1.0647
                  CHANNELS 3 Zrotation Xrotation Yrotation
                  End Site
                  {
                    OFFSET 2.48547 -0.328903 0.83742
                  }
                }
              }
              JOINT lRing1
              {
                OFFSET 8.82822 0.546677 1.51678
                CHANNELS 3 Zrotation Xrotation Yrotation
                JOINT lRing2
                {
                  OFFSET 2.60934 -0.819778 -0.0198488
                  CHANNELS 3 Zrotation Xrotation Yrotation
                  End Site
                  {
                    OFFSET 2.33842 -0.294052 0.168128
                  }
                }
              }
              JOINT lPinky1
              {
                OFFSET 8.27202 -0.0477905 -0.4584
                CHANNELS 3 Zrotation Xrotation Yrotation
                JOINT lPinky2
                {
                  OFFSET 1.82734 -0.647385 -0.700984
                  CHANNELS 3 Zrotation Xrotation Yrotation
                  End Site
                  {
                    OFFSET 1.69225 -0.51767 -0.607171
                  }
                }
              }
            }
          }
        }
      }
    }
  }
  JOINT rButtock
  {
    OFFSET -8.77824 4.35084 1.2192
    CHANNELS 3 Zrotation Xrotation Yrotation
    JOINT rThigh
    {
      OFFSET 0 -1.70687 -2.19456
      CHANNELS 3 Zrotation Xrotation Yrotation
      JOINT rShin
      {
        OFFSET 0 -36.8199 0.73152
        CHANNELS 3 Zrotation Xrotation Yrotation
        JOINT rFoot
        {
          OFFSET 0.73152 -45.1104 -5.12064
          CHANNELS 3 Zrotation Xrotation Yrotation
          End Site
          {
            OFFSET -1.1221 -3.69964 12.103
          }
        }
      }
    }
  }
  JOINT lButtock
  {
    OFFSET 8.77824 4.35084 1.2192
    CHANNELS 3 Zrotation Xrotation Yrotation
    JOINT lThigh
    {
      OFFSET 0 -1.70687 -2.19456
      CHANNELS 3 Zrotation Xrotation Yrotation
      JOINT lShin
      {
        OFFSET 0 -36.8199 0.73152
        CHANNELS 3 Zrotation Xrotation Yrotation
        JOINT lFoot
        {
          OFFSET -0.73152 -45.1104 -5.12064
          CHANNELS 3 Zrotation Xrotation Yrotation
          End Site
          {
            OFFSET 1.1221 -3.69964 12.103
          }
        }
      }
    }
  }
}
MOTION
Frames:	6
Frame Time:	0.00833333
297.824 58.7005 -26.33 0.0 0.0 0.0 -2.9628 0.00183567 -0.0799135 -0.816434 0.0169076 -0.141248 8.77388e-14 7.95139e-16 4.96961e-16 2.63477e-13 9.54166e-15 1.48623e-15 -0.0 0.0 0.0 -0.0 0.0 0.0 4.41311e-14 1.40741e-16 2.98177e-16 9.19767e-13 3.24889e-15 9.74045e-15 1.57916e-11 -4.63387e-12 -3.81667e-14 1.81022e-10 5.33237e-12 1.38354e-12 4.26941e-10 1.51387e-12 2.87522e-12 7.37296e-10 2.61442e-12 4.94656e-12 4.26945e-10 1.51553e-12 2.87204e-12 7.73091 5.47488 0.417314 4.2694e-10 1.51384e-12 2.87522e-12 2.90554 0.965183 0.102902 4.26945e-10 1.51384e-12 2.87681e-12 10.2786 0.731801 0.0259123 4.26931e-10 1.51474e-12 2.88794e-12 2.22167 -0.733487 -0.20892 4.39334e-14 1.43653e-16 4.96962e-17 9.16751e-13 2.96935e-15 7.95139e-15 1.58406e-11 4.83524e-12 -3.81667e-14 1.80961e-10 -4.14941e-12 1.38672e-12 4.26917e-10 1.4887e-12 2.86886e-12 7.37275e-10 2.57307e-12 4.94974e-12 4.26914e-10 1.4889e-12 2.8784e-12 -7.73091 5.47488 -0.417314 4.26917e-10 1.489e-12 2.86886e-12 -2.90554 0.965183 -0.102902 4.2691e-10 1.4891e-12 2.87045e-12 -10.2786 0.731801 -0.0259123 4.26922e-10 1.49088e-12 2.86568e-12 -2.22167 -0.733487 0.20892 -2.03217e-16 0.0 -3.88251e-19 -1.77351 -1.93398 0.0122365 -0.00865924 -2.07864 -0.0711635 -0.476302 3.99977 0.13506 2.03217e-16 0.0 3.88251e-19 -2.72937 -9.04318 0.303301 -0.00826174 10.7975 -0.214856 0.539269 -1.76703 -0.024286
294.918 54.974 -31.6665 5.2242 -85.5126 14.6824 -2.6572 8.46528 -0.740383 -0.954062 -2.55329 -0.360331 0.358238 2.82246 -0.0541431 0.716836 -13.8708 -0.102993 -0.0 0.0 0.0 -0.0 0.0 0.0 3.957e-14 -5.38234e-13 -2.56688e-14 21.3847 7.26911 4.42919 -7.19499 -4.20557 10.0372 0.0154979 -2.76202 -0.386548 6.7321e-10 3.86105e-10 -1.75951e-10 1.16612e-09 6.66766e-10 -3.0218e-10 6.73214e-10 3.86106e-10 -1.75956e-10 7.73091 5.47488 0.417314 6.73209e-10 3.86105e-10 -1.75952e-10 2.90554 0.965183 0.102902 6.73216e-10 3.86105e-10 -1.75952e-10 10.2786 0.731801 0.0259123 6.73202e-10 3.86107e-10 -1.75945e-10 2.22167 -0.733487 -0.20892 3.9448e-14 -5.38241e-13 -2.59014e-14 -20.1584 8.28533 -4.05148 7.42039 -4.40163 -10.2526 -0.111034 -7.40303 1.00933 2.17846e-10 1.54942e-10 1.48995e-10 3.71736e-10 2.64924e-10 2.55525e-10 2.17841e-10 1.54942e-10 1.49003e-10 -7.73091 5.47488 -0.417314 2.17846e-10 1.54942e-10 1.48992e-10 -2.90554 0.965183 -0.102902 2.17838e-10 1.54943e-10 1.48996e-10 -10.2786 0.731801 -0.0259123 2.17851e-10 1.54944e-10 1.48991e-10 -2.22167 -0.733487 0.20892 -2.03217e-16 0.0 -3.88251e-19 -2.13918 -21.256 -3.11428 0.136727 19.6697 0.23064 -0.629235 -3.35219 -2.65097 2.03217e-16 0.0 3.88251e-19 -1.55738 -25.8174 2.32618 -0.0720668 28.1895 -0.48521 0.714186 -7.11288 2.11552
294.919 54.9736 -31.6697 5.1194 -85.5256 14.7868 -2.11241 17.4083 -1.49029 -1.1212 -5.2702 -0.5937 0.743081 5.80622 -0.111763 1.4131 -28.5344 -0.234125 -0.0 0.0 0.0 -0.0 0.0 0.0 3.31004e-14 -1.12109e-12 -5.3442e-14 42.7373 14.8071 9.35118 -13.2194 -8.21989 20.8151 -0.00882204 -5.68109 -0.798132 9.78657e-10 8.46725e-10 -3.89128e-10 1.69781e-09 1.46229e-09 -6.68346e-10 9.78661e-10 8.46725e-10 -3.89134e-10 7.73091 5.47488 0.417314 9.78657e-10 8.46725e-10 -3.8913e-10 2.90554 0.965183 0.102902 9.78665e-10 8.46725e-10 -3.89132e-10 10.2786 0.731801 0.0259123 9.78652e-10 8.46728e-10 -3.89128e-10 2.22167 -0.733487 -0.20892 3.30599e-14 -1.12111e-12 -5.36563e-14 -40.1471 16.9034 -8.62261 13.5743 -8.58343 -21.2778 0.0645229 -15.2208 2.13384 -1.21309e-11 3.5136e-10 3.34463e-10 -3.10746e-11 6.01213e-10 5.73871e-10 -1.21359e-11 3.51359e-10 3.34469e-10 -7.73091 5.47488 -0.417314 -1.21302e-11 3.51359e-10 3.34455e-10 -2.90554 0.965183 -0.102902 -1.2139e-11 3.5136e-10 3.34462e-10 -10.2786 0.731801 -0.0259123 -1.21257e-11 3.51362e-10 3.34456e-10 -2.22167 -0.733487 0.20892 -2.03217e-16 0.0 -3.88251e-19 -5.51404 -41.4629 -7.99567 -0.0334649 42.6585 0.70975 -1.57958 -11.0771 -5.69518 2.03217e-16 0.0 3.88251e-19 1.43709 -43.4559 5.50092 0.125314 46.573 -0.95529 1.34319 -12.7367 4.45421
294.917 54.9733 -31.6672 5.2302 -85.5205 14.6824 -1.40624 25.3771 -2.25479 -1.2888 -7.69309 -0.804666 1.09087 8.46735 -0.16402 1.95814 -41.6118 -0.40121 -0.0 0.0 0.0 -0.0 0.0 0.0 3.04476e-14 -1.61498e-12 -7.76029e-14 60.6089 21.2673 14.1631 -17.323 -11.0688 30.6594 -0.0663063 -8.28454 -1.17051 1.16575e-09 1.15529e-09 -5.33604e-10 2.02376e-09 1.99507e-09 -9.16434e-10 1.16575e-09 1.15529e-09 -5.33612e-10 7.73091 5.47488 0.417314 1.16575e-09 1.15529e-09 -5.33606e-10 2.90554 0.965183 0.102902 1.16576e-09 1.15529e-09 -5.3361e-10 10.2786 0.731801 0.0259123 1.16574e-09 1.15529e-09 -5.3361e-10 2.22167 -0.733487 -0.20892 3.04774e-14 -1.61501e-12 -7.78036e-14 -56.7005 24.3345 -13.2204 17.7095 -11.5139 -31.3663 0.502123 -22.1804 3.24296 -2.00297e-10 4.6185e-10 4.41249e-10 -3.59343e-10 7.89627e-10 7.56675e-10 -2.00303e-10 4.61848e-10 4.41253e-10 -7.73091 5.47488 -0.417314 -2.00296e-10 4.61848e-10 4.41237e-10 -2.90554 0.965183 -0.102902 -2.00305e-10 4.61849e-10 4.41246e-10 -10.2786 0.731801 -0.0259123 -2.00292e-10 4.61852e-10 4.41241e-10 -2.22167 -0.733487 0.20892 -2.03217e-16 0.0 -3.88251e-19 -14.2026 -58.8557 -17.0677 -0.913471 63.1558 1.75806 -3.15529 -17.8755 -8.62824 2.03217e-16 0.0 3.88251e-19 7.35413 -58.948 11.0674 0.880439 62.9633 -1.89412 2.31116 -17.7062 6.6632
294.919 54.9719 -31.67 5.1148 -85.5217 14.7983 -0.765545 30.9243 -2.87464 -1.41539 -9.38147 -0.953959 1.33458 10.3219 -0.201359 2.26756 -50.7244 -0.577707 -0.0 0.0 0.0 -0.0 0.0 0.0 3.73366e-14 -1.88645e-12 -9.2733e-14 72.344 25.5459 17.8649 -19.5692 -12.4823 37.6469 -0.12678 -10.1004 -1.43456 1.05695e-09 1.0837e-09 -5.06328e-10 1.83533e-09 1.87101e-09 -8.69329e-10 1.05695e-09 1.0837e-09 -5.06338e-10 7.73091 5.47488 0.417314 1.05695e-09 1.0837e-09 -5.06332e-10 2.90554 0.965183 0.102902 1.05696e-09 1.0837e-09 -5.06336e-10 10.2786 0.731801 0.0259123 1.05694e-09 1.08371e-09 -5.06338e-10 2.22167 -0.733487 -0.20892 3.7409e-14 -1.88648e-12 -9.29318e-14 -67.4217 29.2924 -16.8708 19.9418 -12.9318 -38.532 0.988023 -27.0219 4.1103 -2.83938e-10 3.5752e-10 3.5133e-10 -5.01256e-10 6.08354e-10 6.00622e-10 -2.83943e-10 3.57518e-10 3.51334e-10 -7.73091 5.47488 -0.417314 -2.83936e-10 3.57518e-10 3.51318e-10 -2.90554 0.965183 -0.102902 -2.83946e-10 3.57519e-10 3.51327e-10 -10.2786 0.731801 -0.0259123 -2.83932e-10 3.57521e-10 3.51321e-10 -2.22167 -0.733487 0.20892 -2.03217e-16 0.0 -3.88251e-19 -29.6572 -69.7752 -32.3024 -3.61233 77.4224 4.51986 -4.69872 -22.5373 -10.8615 2.03217e-16 0.0 3.88251e-19 16.5856 -69.3316 19.7949 2.61594 74.3743 -3.72615 3.22916 -21.1315 8.30153
294.919 54.9707 -31.6706 5.1118 -85.5224 14.8028 -0.475578 33.0926 -3.14349 -1.46522 -10.0417 -1.01304 1.42638 11.0468 -0.216862 2.3675 -54.2862 -0.671174 -0.0 0.0 0.0 -0.0 0.0 0.0 6.56538e-14 -1.87292e-12 -9.76231e-14 76.7549 27.1582 19.411 -20.3332 -12.8858 40.4045 -0.155213 -10.815 -1.53966 3.52069e-10 2.61891e-10 -1.42885e-10 6.10894e-10 4.50487e-10 -2.44393e-10 3.52074e-10 2.6189e-10 -1.42896e-10 7.73091 5.47488 0.417314 3.52071e-10 2.6189e-10 -1.42888e-10 2.90554 0.965183 0.102902 3.52081e-10 2.61891e-10 -1.42892e-10 10.2786 0.731801 0.0259123 3.52067e-10 2.61894e-10 -1.42894e-10 2.22167 -0.733487 -0.20892 6.57302e-14 -1.87294e-12 -9.7842e-14 -71.4117 31.174 -18.4269 20.6934 -13.3231 -41.3568 1.22476 -28.9196 4.47879 -1.95638e-10 -2.03628e-10 -1.52052e-10 -3.33985e-10 -3.59943e-10 -2.68364e-10 -1.95643e-10 -2.03629e-10 -1.52048e-10 -7.73091 5.47488 -0.417314 -1.95636e-10 -2.0363e-10 -1.52062e-10 -2.90554 0.965183 -0.102902 -1.95646e-10 -2.03629e-10 -1.52055e-10 -10.2786 0.731801 -0.0259123 -1.95632e-10 -2.03627e-10 -1.52062e-10 -2.22167 -0.733487 0.20892 -2.03217e-16 0.0 -3.88251e-19 -40.9236 -73.2802 -43.3711 -7.76411 82.9777 8.68309 -5.40081 -24.3526 -11.7644 2.03217e-16 0.0 3.88251e-19 23.1558 -73.1421 26.1156 4.32909 78.8289 -5.46989 3.64398 -22.4613 8.96629
